<?xml version="1.0" encoding="utf-8"?>
<!-- Generator: Adobe Illustrator 18.1.1, SVG Export Plug-In . SVG Version: 6.00 Build 0)  -->
<svg version="1.1" id="Layer_1" xmlns="http://www.w3.org/2000/svg" xmlns:xlink="http://www.w3.org/1999/xlink" x="0px" y="0px"
	 width="24px" height="24px" viewBox="101.2 4.5 24 24" enable-background="new 101.2 4.5 24 24" xml:space="preserve">
<path fill="none" d="M101.2,4.5h24v24h-24V4.5z"/>
<g>
	<path d="M112.7,18.4l0.9,0l-0.3-0.4c-0.1,0.1-0.2,0.1-0.3,0.1c-0.1,0-0.1,0-0.2,0l-0.2,0.3H112.7z"/>
	<path d="M112.6,18c-0.1-0.1-0.2-0.3-0.2-0.4v-3.5h-0.1v4.3h0.1L112.6,18z"/>
	<path d="M110.6,25v-5.5l-0.1-0.4c0,0-0.1-0.1-0.1-0.1c-0.1,0-0.2,0.1-0.2,0.2V25c0,0.1-0.1,0.3-0.1,0.4c0.3,0,0.6,0.1,0.8,0.1
		C110.7,25.4,110.6,25.2,110.6,25z"/>
	<path d="M115.4,18.6h-2.7l-0.5,0V19c0,0.2-0.1,0.4-0.2,0.5v0c0.1,0,0.1-0.1,0.2-0.1c0,0,0,0,0,0c0,0,0,0.1,0,0.1c0,0,0,0.1,0.1,0.1
		c0.1,0.1,0.1,0.1,0.2,0.1c0,0,0,0,0,0c-0.1,0-0.1-0.1-0.2-0.1c-0.1-0.1-0.1-0.1-0.1-0.2c0.1-0.1,0.3-0.1,0.4-0.1c0,0.1,0,0.2,0,0.4
		c0,0,0,0,0,0c0.1,0,0.2-0.1,0.2-0.1c0-0.2,0-0.3,0.1-0.5c0,0,0,0,0,0c0,0,0,0,0,0c0,0,0,0,0,0c0.1,0.1,0.3,0.1,0.4,0.3c0,0,0,0,0,0
		c0,0,0,0,0,0c0,0,0,0,0,0c0,0,0,0,0.1,0.1c0,0,0,0,0,0c0,0,0,0,0,0c0,0,0,0.1,0,0.1c0.1,0,0.3,0,0.4,0c0.1,0,0.2,0,0.3,0.1
		c0.1,0,0.2,0.1,0.2,0.2c0,0,0,0,0,0c0,0-0.1,0-0.1,0.1c0,0-0.1,0.1-0.1,0.1c-0.1,0.1,0,0.2,0,0.3c-0.1,0-0.2,0-0.3-0.1
		c-0.1,0-0.2-0.1-0.3-0.2c0,0.1,0,0.2-0.1,0.3c0.1,0,0.3,0.1,0.4,0.3c-0.1,0-0.2,0-0.3,0c-0.1,0.1-0.1,0.1-0.3,0.2c0,0,0,0,0,0
		c0-0.1,0-0.3,0.1-0.4c-0.1-0.1-0.3-0.2-0.4-0.3c0,0,0,0,0-0.1c0,0,0,0,0,0c0,0.1-0.1,0.2-0.2,0.3c-0.1,0.1-0.2,0.1-0.2,0.2
		c0,0,0,0,0,0c0,0,0-0.1,0-0.1c0-0.1-0.1-0.1-0.1-0.1c-0.1-0.1-0.2-0.1-0.3-0.1c0,0,0-0.1,0-0.1c0,0,0,0,0,0c0,0-0.1,0-0.1,0v0.9
		h2.9L115.4,18.6z M112,20.7c0-0.2,0-0.4,0-0.5c0.1,0,0.2,0.1,0.3,0.2c0.1,0.1,0.2,0.2,0.2,0.2C112.4,20.6,112.2,20.7,112,20.7z
		 M114.2,20.3c0-0.1,0-0.2,0.1-0.3c0-0.1,0.1-0.2,0.2-0.3c0.1,0.1,0.2,0.3,0.3,0.5C114.6,20.3,114.4,20.3,114.2,20.3z"/>
	<path d="M120.1,16.9c0-4.7-3.8-8.6-8.6-8.6s-8.6,3.8-8.6,8.6c0,3.8,2.4,7,5.8,8.1c0,0,0,0,0,0v-5.6c-0.1-0.1-0.2-0.3-0.2-0.5v-4.9
		h-0.1v3.5c0,0.3-0.3,0.6-0.6,0.6s-0.6-0.3-0.6-0.6v-4.9c0,0,0,0,0-0.1c0,0,0,0,0-0.1c0,0,0-0.1,0-0.1c0.1-0.3,0.4-0.5,0.8-0.5h2.3
		h2.3c0.4,0,0.7,0.2,0.8,0.5c0,0,0,0.1,0,0.1c0,0,0,0,0,0.1c0,0,0,0,0,0.1v4.9c0,0.1,0,0.2-0.1,0.3l0.4,0.6h1.9l-0.7,2.9h-3V25
		c0,0.2-0.1,0.4-0.3,0.5C116.3,25.4,120.1,21.6,120.1,16.9z M110.4,11.5c-0.8,0-1.4-0.6-1.4-1.4c0-0.8,0.6-1.4,1.4-1.4
		c0.8,0,1.4,0.6,1.4,1.4C111.8,10.9,111.2,11.5,110.4,11.5z"/>
	<path d="M110.8,25.5c0.1,0.1,0.2,0.1,0.3,0.1h0.3c0.1,0,0.2,0,0.3-0.1c-0.1,0-0.1,0-0.2,0C111.3,25.5,111.1,25.5,110.8,25.5z"/>
	<path d="M109.3,25.6h0.3c0.2,0,0.3-0.1,0.4-0.2c-0.4-0.1-0.8-0.2-1.3-0.3C108.8,25.3,109,25.6,109.3,25.6z"/>
</g>
</svg>
