<!DOCTYPE svg PUBLIC "-//W3C//DTD SVG 20010904//EN" "http://www.w3.org/TR/2001/REC-SVG-20010904/DTD/svg10.dtd">
<svg version="1.0" xmlns="http://www.w3.org/2000/svg" width="80px" height="71px" viewBox="0 0 800 710" preserveAspectRatio="xMidYMid meet">
<g id="layer101" fill="#cf5757" stroke="none">
 <path d="M0 656 c0 -93 30 -286 55 -363 14 -40 25 -82 25 -92 0 -10 9 -30 21 -45 19 -24 27 -26 90 -26 l69 0 0 -38 c0 -52 23 -72 83 -72 53 0 67 16 67 74 0 49 23 47 52 -5 66 -118 246 -120 314 -3 51 87 19 211 -66 254 -22 11 -46 20 -55 20 -18 0 -18 -9 0 125 8 61 15 136 15 168 l0 57 -335 0 -335 0 0 -54z m640 1 c0 -34 -19 -185 -31 -244 -7 -37 -15 -53 -26 -53 -32 0 -99 -49 -121 -88 -12 -22 -22 -57 -22 -78 0 -38 -1 -38 -13 -14 -16 31 -49 32 -62 3 -13 -29 -55 -32 -55 -4 0 11 -5 23 -10 26 -18 11 -50 -6 -50 -26 0 -16 -7 -19 -53 -19 -56 0 -77 12 -77 44 0 11 -11 47 -24 80 -25 62 -50 194 -62 324 l-7 72 307 0 306 0 0 -23z m-10 -422 l0 -45 46 0 c27 0 43 -4 39 -10 -3 -5 -24 -10 -46 -10 -39 0 -39 0 -39 -40 0 -22 -4 -40 -10 -40 -5 0 -10 18 -10 40 0 29 -4 40 -15 40 -8 0 -15 5 -15 10 0 6 7 10 15 10 11 0 15 12 15 45 0 25 5 45 10 45 6 0 10 -20 10 -45z m-80 -49 c0 -3 -4 -8 -10 -11 -5 -3 -10 -1 -10 4 0 6 5 11 10 11 6 0 10 -2 10 -4z m-172 -93 c-3 -33 -7 -38 -31 -41 -37 -4 -57 13 -57 49 0 28 2 29 46 29 l45 0 -3 -37z"/>
 <path d="M328 570 c-7 -11 -20 -20 -30 -20 -9 0 -28 -14 -42 -31 -24 -28 -26 -38 -24 -110 1 -95 4 -98 100 -94 76 4 98 13 118 49 12 24 11 28 -15 56 -16 17 -36 30 -44 30 -9 0 -21 11 -27 24 -10 22 -9 25 11 30 18 5 22 12 21 38 -2 50 -44 67 -68 28z m9 -67 c-4 -3 -10 -3 -14 0 -3 4 0 7 7 7 7 0 10 -3 7 -7z"/>
 </g>

</svg>