<?xml version="1.0" encoding="utf-8"?>
<!-- Generator: Adobe Illustrator 18.1.1, SVG Export Plug-In . SVG Version: 6.00 Build 0)  -->
<svg version="1.1" id="Layer_1" xmlns="http://www.w3.org/2000/svg" xmlns:xlink="http://www.w3.org/1999/xlink" x="0px" y="0px"
	 width="24px" height="24px" viewBox="50.8 4.5 24 24" enable-background="new 50.8 4.5 24 24" xml:space="preserve">
<path fill="none" d="M50.8,4.5h24v24h-24V4.5z"/>
<g>
	<path fill="#010101" d="M68.7,23.4c-0.1,0.1-0.3,0.3-0.4,0.4C68.5,23.7,68.6,23.5,68.7,23.4z"/>
	<path fill="#010101" d="M57.4,23.8c-0.2-0.1-0.3-0.3-0.4-0.4C57.1,23.5,57.2,23.7,57.4,23.8z"/>
	<path fill="#010101" d="M58,23.9c-0.2,0-0.4-0.1-0.6-0.2c1.5,1.2,3.4,2,5.4,2c2.1,0,4-0.7,5.4-2c-0.2,0.1-0.4,0.2-0.6,0.2H58z"/>
	<path fill="#010101" d="M66.3,16.5c-0.2-0.3-0.5-0.5-0.8-0.5h-5.2c-0.3,0-0.6,0.2-0.8,0.5l-1.9,3.6c-0.1,0.1-0.1,0.3-0.1,0.4v2.1
		c0,0.3,0.3,0.6,0.6,0.6h9.7c0.3,0,0.6-0.3,0.6-0.6h0v-2.1c0-0.2,0-0.3-0.1-0.4L66.3,16.5z M61,22.1c-0.3,0-0.6-0.3-0.6-0.6
		c0-0.3,0.3-0.6,0.6-0.6c0.3,0,0.6,0.3,0.6,0.6C61.6,21.8,61.4,22.1,61,22.1z M61,20.3c-0.3,0-0.6-0.3-0.6-0.6
		c0-0.3,0.3-0.6,0.6-0.6c0.3,0,0.6,0.3,0.6,0.6C61.6,20,61.4,20.3,61,20.3z M61,18.4c-0.3,0-0.6-0.3-0.6-0.6c0-0.3,0.3-0.6,0.6-0.6
		c0.3,0,0.6,0.3,0.6,0.6C61.6,18.2,61.4,18.4,61,18.4z M62.8,22.1c-0.3,0-0.6-0.3-0.6-0.6c0-0.3,0.3-0.6,0.6-0.6
		c0.3,0,0.6,0.3,0.6,0.6C63.5,21.8,63.2,22.1,62.8,22.1z M62.8,20.3c-0.3,0-0.6-0.3-0.6-0.6c0-0.3,0.3-0.6,0.6-0.6
		c0.3,0,0.6,0.3,0.6,0.6C63.5,20,63.2,20.3,62.8,20.3z M62.8,18.4c-0.3,0-0.6-0.3-0.6-0.6c0-0.3,0.3-0.6,0.6-0.6
		c0.3,0,0.6,0.3,0.6,0.6C63.5,18.2,63.2,18.4,62.8,18.4z M64.7,22.1c-0.3,0-0.6-0.3-0.6-0.6c0-0.3,0.3-0.6,0.6-0.6
		c0.3,0,0.6,0.3,0.6,0.6C65.3,21.8,65,22.1,64.7,22.1z M64.7,20.3c-0.3,0-0.6-0.3-0.6-0.6c0-0.3,0.3-0.6,0.6-0.6
		c0.3,0,0.6,0.3,0.6,0.6C65.3,20,65,20.3,64.7,20.3z M64.7,18.4c-0.3,0-0.6-0.3-0.6-0.6c0-0.3,0.3-0.6,0.6-0.6
		c0.3,0,0.6,0.3,0.6,0.6C65.3,18.2,65,18.4,64.7,18.4z"/>
	<path fill="#010101" d="M71.3,17.2c0-4.7-3.8-8.5-8.5-8.5s-8.5,3.8-8.5,8.5c0,2.4,1,4.6,2.6,6.1c-0.1-0.2-0.2-0.4-0.2-0.7v-2.1
		c0-0.2,0.1-0.5,0.2-0.7l1.9-3.6c0.3-0.5,0.8-0.8,1.3-0.8h5.2c0.6,0,1.1,0.3,1.3,0.8l1.9,3.6c0.1,0.2,0.2,0.5,0.2,0.7v2.1
		c0,0.2-0.1,0.5-0.2,0.7C70.3,21.8,71.3,19.6,71.3,17.2z M68.5,16.4c-0.2,0.2-0.4,0.3-0.6,0.3c-0.2,0-0.5-0.1-0.6-0.3
		c-0.5-0.5-1-0.9-1.6-1.2c-0.3-0.2-0.5-0.5-0.5-0.8L65,12.8c-1.5-0.5-2.7-0.5-4.3,0l-0.2,1.6c0,0.3-0.2,0.6-0.5,0.8
		c-0.6,0.3-1.1,0.7-1.6,1.2c-0.3,0.3-0.9,0.3-1.2,0l-1.4-1.5c-0.2-0.2-0.2-0.4-0.2-0.6c0-0.2,0.1-0.5,0.2-0.6c1.9-2,4.4-3.1,7-3.1
		s5.2,1.1,7,3.1c0.2,0.2,0.3,0.4,0.3,0.7c0,0.2-0.1,0.4-0.2,0.6L68.5,16.4z"/>
	<path fill="#010101" d="M62.8,11.1c-2.5,0-4.8,1-6.6,2.9c-0.1,0.1-0.1,0.3,0,0.4l1.4,1.5c0.1,0.1,0.3,0.1,0.4,0
		c0.5-0.5,1.1-1,1.7-1.3c0.1,0,0.2-0.2,0.2-0.3l0.2-1.8c0-0.1,0.1-0.2,0.2-0.2c0.9-0.3,1.7-0.5,2.5-0.5c0.8,0,1.6,0.2,2.5,0.5
		c0.1,0,0.2,0.1,0.2,0.2l0.2,1.8c0,0.2,0.1,0.3,0.2,0.3c0.6,0.3,1.2,0.8,1.7,1.3c0.1,0.1,0.3,0.1,0.4,0l1.4-1.5
		c0.1-0.1,0.1-0.3,0-0.4C67.7,12.2,65.3,11.1,62.8,11.1z"/>
</g>
</svg>
