<svg id="Layer_1" data-name="Layer 1" xmlns="http://www.w3.org/2000/svg" viewBox="0 0 512 512"><defs><style>.cls-1{fill:#f20000;}</style></defs><title>added cart red</title><path class="cls-1" d="M315.72,311.36H132.06A11.69,11.69,0,0,1,132,288H323.85A97.59,97.59,0,0,1,365,245.61l37.1-129.84a11.69,11.69,0,0,0-11.24-14.91H105.06L96.7,63.25a11.7,11.7,0,0,0-11.42-9.16H15.12a11.69,11.69,0,1,0,0,23.39H75.9l42.22,190a35.08,35.08,0,0,0,13.94,67.27H313.73c0-1.14-.07-2.28-.07-3.42A97.57,97.57,0,0,1,315.72,311.36ZM110.25,124.25H375.39l-40.1,140.33H141.44Z"/><path class="cls-1" d="M120.36,369.83a35.08,35.08,0,1,0,35.08-35.08A35.12,35.12,0,0,0,120.36,369.83Zm35.08-11.69a11.69,11.69,0,1,1-11.69,11.69A11.71,11.71,0,0,1,155.45,358.14Z"/><path class="cls-1" d="M320.72,381.53a11.69,11.69,0,0,1-3.18-22.94,97,97,0,0,1-3.79-23.14,35.08,35.08,0,1,0,27,63.17,97.52,97.52,0,0,1-14.09-18.73A11.6,11.6,0,0,1,320.72,381.53Z"/><polygon class="cls-1" points="462.23 311.02 447.27 295.67 400.24 343.57 376.14 319.38 363.22 332.3 401.21 370.2 462.23 311.02"/><path class="cls-1" d="M320.72,334.75a34.94,34.94,0,0,1,10.7,1.68c0-.56-.07-1.12-.09-1.68Z"/><path class="cls-1" d="M410.83,234.16A96.73,96.73,0,0,0,365,245.61l-7.64,26.75a79.59,79.59,0,1,1-5.14,112.83,35.31,35.31,0,0,1-11.52,13.43,97.17,97.17,0,1,0,70.09-164.46Z"/><path class="cls-1" d="M332.42,369.83a11.66,11.66,0,0,0-14.88-11.24,96.61,96.61,0,0,0,9.11,21.3A11.69,11.69,0,0,0,332.42,369.83Z"/><path class="cls-1" d="M313.73,334.75q0,.35,0,.7a35.11,35.11,0,0,1,7-.7Z"/><path class="cls-1" d="M323.85,288a96.46,96.46,0,0,0-8.13,23.39h18.06A79.14,79.14,0,0,1,344.11,288Z"/><path class="cls-1" d="M331.34,334.75c0-1.14-.09-2.27-.09-3.42a79.72,79.72,0,0,1,2.53-20H315.72a97.57,97.57,0,0,0-2.06,20c0,1.15,0,2.29.07,3.42h17.61Z"/><path class="cls-1" d="M323.85,288h20.26a80,80,0,0,1,13.29-15.62L365,245.61A97.59,97.59,0,0,0,323.85,288Z"/><path class="cls-1" d="M352.26,385.19a79.26,79.26,0,0,1-20.83-48.76,35.08,35.08,0,0,0-17.67-1,97,97,0,0,0,3.79,23.14,11.68,11.68,0,0,1,9.11,21.3,97.52,97.52,0,0,0,14.09,18.73A35.31,35.31,0,0,0,352.26,385.19Z"/></svg>