<!DOCTYPE svg PUBLIC "-//W3C//DTD SVG 20010904//EN" "http://www.w3.org/TR/2001/REC-SVG-20010904/DTD/svg10.dtd">
<svg version="1.0" xmlns="http://www.w3.org/2000/svg" width="65px" height="59px" viewBox="0 0 650 590" preserveAspectRatio="xMidYMid meet">
<g id="layer101" fill="#000000" stroke="none">
 <path d="M398 572 c-38 -25 -64 -61 -78 -109 -11 -36 -11 -49 4 -86 49 -128 189 -161 282 -66 38 39 39 42 39 112 0 61 -4 77 -23 102 -39 50 -71 65 -137 65 -41 0 -69 -6 -87 -18z m153 -27 c89 -46 92 -181 6 -234 -92 -57 -207 10 -207 119 0 98 111 161 201 115z"/>
 <path d="M470 485 l0 -45 -45 0 c-33 0 -45 -4 -45 -15 0 -11 12 -15 45 -15 l45 0 0 -40 c0 -29 4 -40 15 -40 11 0 15 11 15 40 l0 40 45 0 c33 0 45 4 45 15 0 11 -12 15 -45 15 l-45 0 0 45 c0 33 -4 45 -15 45 -11 0 -15 -12 -15 -45z"/>
 <path d="M0 220 l0 -220 275 0 275 0 0 114 c0 71 -4 117 -11 121 -6 4 -12 5 -14 3 -2 -2 -5 -50 -6 -106 l-1 -102 -244 0 -244 0 0 190 0 190 130 0 c109 0 130 2 130 15 0 13 -23 15 -145 15 l-145 0 0 -220z"/>
 <path d="M52 392 c-9 -7 -12 -49 -10 -178 l3 -169 228 -3 228 -2 -3 95 c-4 116 -22 132 -26 23 l-3 -78 -194 0 -194 0 -3 85 -3 84 27 -26 27 -25 46 33 46 33 52 -50 c86 -83 80 -82 121 -28 20 26 36 53 36 60 0 14 -30 20 -30 7 -1 -5 -12 -21 -25 -38 l-24 -30 -38 35 c-21 20 -50 46 -65 59 l-28 24 -44 -31 -43 -31 -25 27 c-14 15 -28 42 -30 60 l-5 32 109 0 c99 0 109 2 106 18 -3 15 -18 17 -113 20 -61 1 -116 -2 -123 -6z"/>
 <path d="M134 165 c-15 -23 -15 -27 0 -50 29 -43 96 -21 96 31 0 48 -68 62 -96 19z m61 -25 c0 -22 -29 -18 -33 3 -3 14 1 18 15 15 10 -2 18 -10 18 -18z"/>
 </g>

</svg>