<!DOCTYPE svg PUBLIC "-//W3C//DTD SVG 20010904//EN" "http://www.w3.org/TR/2001/REC-SVG-20010904/DTD/svg10.dtd">
<svg version="1.0" xmlns="http://www.w3.org/2000/svg" width="38px" height="42px" viewBox="0 0 380 420" preserveAspectRatio="xMidYMid meet">
<g id="layer101" fill="#000000" stroke="none">
 <path d="M0 210 l0 -210 113 0 112 0 58 56 58 56 -3 76 c-2 49 -7 77 -15 80 -10 3 -13 -15 -13 -67 l0 -71 -55 0 -55 0 0 -55 0 -55 -90 0 -90 0 0 190 0 190 105 0 c63 0 105 4 105 10 0 6 -45 10 -115 10 l-115 0 0 -210z m263 -140 c-18 -17 -34 -30 -36 -30 -2 0 -2 13 1 30 4 26 8 30 36 30 l31 0 -32 -30z"/>
 <path d="M251 394 c-27 -34 -26 -57 2 -88 65 -73 168 12 111 92 -23 33 -86 31 -113 -4z m94 -18 c29 -44 -18 -91 -65 -66 -23 13 -27 30 -5 30 8 0 15 -7 15 -15 0 -8 7 -15 15 -15 8 0 15 7 15 15 0 8 7 15 15 15 8 0 15 5 15 10 0 6 -7 10 -15 10 -8 0 -15 7 -15 15 0 8 -7 15 -15 15 -8 0 -15 -7 -15 -15 0 -8 -7 -15 -15 -15 -36 0 0 39 37 40 10 0 25 -11 33 -24z"/>
 <path d="M117 303 c-11 -10 -8 -151 2 -158 11 -6 120 66 121 80 0 9 -101 85 -112 85 -3 0 -8 -3 -11 -7z m90 -77 c1 -1 -14 -11 -33 -24 l-34 -22 0 46 0 45 33 -22 c17 -12 33 -23 34 -23z"/>
 </g>

</svg>