<?xml version="1.0" encoding="utf-8"?>
<!-- Generator: Adobe Illustrator 18.1.1, SVG Export Plug-In . SVG Version: 6.00 Build 0)  -->
<svg version="1.1" id="Layer_1" xmlns="http://www.w3.org/2000/svg" xmlns:xlink="http://www.w3.org/1999/xlink" x="0px" y="0px"
	 width="24px" height="24px" viewBox="158.7 3.7 24 24" enable-background="new 158.7 3.7 24 24" xml:space="preserve">
<path fill="none" d="M158.7,3.7h24v24h-24V3.7z"/>
<path fill="#010101" d="M171.2,8.5c-4.7,0-8.5,3.8-8.5,8.5c0,4.7,3.8,8.5,8.5,8.5c4.7,0,8.5-3.8,8.5-8.5
	C179.7,12.3,175.9,8.5,171.2,8.5z M175.6,21.8c0,0.2,0,0.3-0.3,0.3c-1.4,0-2.9,0-4.3,0c-0.1,0-0.1,0-0.2,0c0,0.2,0,0.4,0,0.7
	s-0.1,0.3-0.3,0.2c-0.2-0.1-0.4-0.2-0.7-0.3c-0.4-0.2-0.8-0.4-1.3-0.6c-0.4-0.2-0.9-0.4-1.3-0.6c-0.2-0.1-0.4-0.2-0.6-0.3
	c0,0,0,0,0,0l-0.2-0.1v-8.2l0.2-0.1c0,0,0.1-0.1,0.1-0.1c0.6-0.3,1.2-0.6,1.9-0.8c0.4-0.2,0.9-0.4,1.3-0.6c0.2-0.1,0.4-0.2,0.6-0.3
	c0.2-0.1,0.3,0,0.3,0.2c0,0.2,0,0.4,0,0.7c0.1,0,0.1,0,0.2,0c1.4,0,2.9,0,4.3,0c0.2,0,0.3,0,0.3,0.3c0,1.2,0,2.5,0,3.7
	c0,0.1,0,0.1,0,0.2c0,0.1-0.1,0.1-0.2,0.1c-0.1,0-0.1-0.1-0.2-0.1c0,0,0-0.1,0-0.2c0-1.2,0-2.3,0-3.5c0,0,0-0.1,0-0.2
	c-1.5,0-2.9,0-4.4,0c0,3.2,0,6.4,0,9.6c1.5,0,2.9,0,4.4,0c0,0,0-0.1,0-0.1c0-1.2,0-2.4,0-3.5c0-0.2,0.1-0.3,0.2-0.3
	c0.1,0,0.2,0.1,0.2,0.3C175.6,19.3,175.6,20.6,175.6,21.8z M177.8,17.1c-1.6,0-3.3,0-4.9,0c0,0-0.1,0-0.2,0c0,0.1,0.1,0.1,0.1,0.2
	c0.3,0.3,0.5,0.5,0.8,0.8c0,0,0,0,0.1,0.1c0.1,0.1,0,0.2-0.1,0.2c-0.1,0.1-0.1,0-0.2,0c-0.4-0.4-0.8-0.8-1.2-1.2c0,0,0,0-0.1-0.1
	c-0.1-0.1-0.1-0.2,0-0.3c0.2-0.2,0.5-0.5,0.7-0.7c0.2-0.2,0.3-0.4,0.5-0.5c0,0,0.1-0.1,0.2,0c0,0,0.1,0.1,0.1,0.2c0,0,0,0.1-0.1,0.1
	c-0.2,0.2-0.5,0.5-0.7,0.7c-0.1,0.1-0.1,0.2-0.2,0.3c0.1,0,0.1,0,0.2,0c1.6,0,3.3,0,4.9,0c0.2,0,0.3,0.1,0.3,0.2
	C178,17.1,178,17.1,177.8,17.1z"/>
</svg>
