<?xml version="1.0" encoding="utf-8"?>
<!-- Generator: Adobe Illustrator 18.1.1, SVG Export Plug-In . SVG Version: 6.00 Build 0)  -->
<svg version="1.1" id="Layer_1" xmlns="http://www.w3.org/2000/svg" xmlns:xlink="http://www.w3.org/1999/xlink" x="0px" y="0px"
	 width="24px" height="24px" viewBox="76 4.5 24 24" enable-background="new 76 4.5 24 24" xml:space="preserve">
<path fill="none" d="M76,4.5h24v24H76V4.5z"/>
<path d="M87.7,12.2C87.6,12,87.5,12,87.3,12c-0.2,0-0.3,0.1-0.4,0.2L86,13.5h0.3l2.3,0L87.7,12.2z"/>
<path d="M84.9,14.2h-3.8l1.9,6.3h9l1.5-6.3h-7.1H84.9L84.9,14.2z M84.7,19.5c-0.1-0.4-0.1-0.9,0.1-1.4c0.2,0.1,0.5,0.2,0.7,0.4
	c0.2,0.2,0.4,0.4,0.5,0.6C85.6,19.4,85.1,19.5,84.7,19.5z M91.7,18.3c-0.4,0.2-0.9,0.3-1.4,0.3c0-0.2,0.1-0.5,0.2-0.8
	c0.1-0.3,0.3-0.5,0.4-0.7C91.3,17.4,91.5,17.8,91.7,18.3z M85,16C85,16,85,16,85,16c0,0.2,0,0.2,0,0.3c0,0.1,0.1,0.2,0.2,0.3
	c0.2,0.1,0.3,0.2,0.5,0.2c0,0,0.1,0,0.1-0.1c-0.1-0.1-0.3-0.2-0.4-0.3C85.2,16.3,85.1,16.1,85,16c0.4-0.2,0.7-0.2,1.1-0.2
	c0,0.3,0,0.6-0.1,0.9c0,0,0.1,0,0.1-0.1c0.2-0.1,0.4-0.2,0.6-0.2c0-0.4,0.1-0.8,0.3-1.2c0,0,0.1,0,0.1,0c0,0,0,0,0,0
	c0,0,0.1,0.1,0.1,0.1c0.3,0.1,0.7,0.4,0.9,0.7c0,0-0.1,0-0.1,0.1c0,0,0,0,0.1,0c0,0,0,0,0-0.1c0,0.1,0.1,0.1,0.1,0.2
	c0,0,0.1,0,0.1,0.1c0,0,0,0,0,0c0,0.1,0.1,0.1,0.1,0.2c0.3-0.1,0.7-0.1,1-0.1c0.2,0,0.5,0.1,0.8,0.2c0.3,0.1,0.5,0.3,0.6,0.4
	c0,0-0.1,0-0.1,0c-0.1,0-0.2,0.1-0.3,0.2c-0.1,0.1-0.2,0.2-0.3,0.4c-0.1,0.3-0.1,0.6,0,0.9c-0.3,0-0.5-0.1-0.8-0.2
	c-0.3-0.1-0.5-0.2-0.7-0.4c0,0.3-0.1,0.6-0.2,0.8c0.3,0.1,0.7,0.3,0.9,0.7c-0.3,0.1-0.6,0.1-0.8,0.1c-0.2,0.2-0.4,0.4-0.7,0.5
	c0,0,0-0.1,0-0.1c0-0.4,0.1-0.7,0.2-1c-0.4-0.2-0.7-0.5-1-0.8c0-0.1-0.1-0.1-0.1-0.2c0,0,0,0,0,0c-0.1,0.2-0.3,0.5-0.4,0.7
	c-0.2,0.2-0.4,0.4-0.6,0.5c0,0,0-0.1,0-0.1c0-0.1,0-0.2-0.1-0.3c-0.1-0.1-0.1-0.3-0.3-0.4c-0.3-0.2-0.6-0.2-0.9-0.2
	c0-0.1,0.1-0.2,0.1-0.2c0,0,0,0-0.1,0c-0.2,0.1-0.5,0.2-0.7,0.2c0,0.3,0,0.6-0.2,0.9c-0.2-0.2-0.3-0.4-0.3-0.6
	c-0.2-0.1-0.4-0.1-0.6-0.3c0,0,0,0,0,0c0.3-0.2,0.5-0.2,0.8-0.2c0-0.3,0.1-0.7,0.3-1c0.1-0.2,0.2-0.4,0.4-0.5
	C84.7,16.2,84.8,16.1,85,16z"/>
<path d="M87.3,8.3c-4.8,0-8.7,3.9-8.7,8.7c0,4.8,3.9,8.7,8.7,8.7c4.8,0,8.7-3.9,8.7-8.7C96,12.1,92.1,8.3,87.3,8.3z M92.5,21h-10
	l-2.2-7.5h5l1.1-1.7c0.2-0.3,0.5-0.5,0.9-0.5c0.4,0,0.7,0.2,0.9,0.5l1.2,1.7h4.9L92.5,21z"/>
</svg>
