<?xml version="1.0" encoding="utf-8"?>
<!-- Generator: Adobe Illustrator 18.1.1, SVG Export Plug-In . SVG Version: 6.00 Build 0)  -->
<svg version="1.1" id="Layer_1" xmlns="http://www.w3.org/2000/svg" xmlns:xlink="http://www.w3.org/1999/xlink" x="0px" y="0px"
	 width="24px" height="24px" viewBox="188.8 4.5 24 24" enable-background="new 188.8 4.5 24 24" xml:space="preserve">
<path fill="none" d="M188.8,4.5h24v24h-24V4.5z"/>
<g>
	<circle cx="204.4" cy="12.5" r="0.2"/>
	<path d="M204.4,10.7c-0.3,0-0.6,0.3-0.6,0.6v0c0,0.1,0.1,0.2,0.2,0.2s0.2-0.1,0.2-0.2c0-0.2,0.1-0.3,0.3-0.3c0.2,0,0.3,0.1,0.3,0.3
		c0,0.2-0.1,0.3-0.3,0.3c-0.1,0-0.2,0.1-0.2,0.2V12c0,0.1,0.1,0.2,0.2,0.2s0.2-0.1,0.2-0.2v0c0.3-0.1,0.5-0.3,0.5-0.6
		C205.1,11,204.8,10.7,204.4,10.7z"/>
	<path d="M201.5,8.4c-4.8,0-8.6,3.9-8.6,8.6c0,4.8,3.9,8.6,8.6,8.6s8.6-3.9,8.6-8.6C210.1,12.2,206.2,8.4,201.5,8.4z M199.9,12
		c0.7,0,1.3,0.6,1.3,1.3s-0.6,1.3-1.3,1.3c-0.7,0-1.3-0.6-1.3-1.3S199.2,12,199.9,12z M203.4,21.8H201v2.3c0,0.2-0.2,0.4-0.4,0.4
		h-0.2c-0.2,0-0.4-0.2-0.4-0.4v-3.8v-0.2c0-0.1-0.1-0.2-0.2-0.2c-0.1,0-0.2,0.1-0.2,0.2v0.2v3.8c0,0.2-0.2,0.4-0.4,0.4H199
		c-0.2,0-0.4-0.2-0.4-0.4v-3.9c-0.1-0.1-0.2-0.2-0.2-0.3v-3.4h-0.1v2.4c0,0.2-0.2,0.4-0.4,0.4s-0.4-0.2-0.4-0.4v-3.1v-0.3v-0.1
		c0,0,0,0,0-0.1c0,0,0,0,0,0c0,0,0-0.1,0-0.1c0.1-0.2,0.3-0.4,0.6-0.4h0.7h1.8h0.7c0.3,0,0.5,0.2,0.6,0.4c0,0,0,0.1,0,0.1
		c0,0,0,0,0,0c0,0,0,0,0,0.1v0.1v0.3v3.1c0,0.1-0.1,0.2-0.1,0.3l0.6,0.6h1.2L203.4,21.8z M206.3,12.8c0,0.4-0.3,0.7-0.7,0.7h-2
		l-0.7,0.5c-0.1,0.1-0.3,0-0.3-0.1v-3.3c0-0.4,0.3-0.7,0.7-0.7h2.2c0.4,0,0.7,0.3,0.7,0.7V12.8z"/>
</g>
</svg>
