<?xml version="1.0" encoding="utf-8"?>
<!-- Generator: Adobe Illustrator 18.1.1, SVG Export Plug-In . SVG Version: 6.00 Build 0)  -->
<svg version="1.1" id="Layer_1" xmlns="http://www.w3.org/2000/svg" xmlns:xlink="http://www.w3.org/1999/xlink" x="0px" y="0px"
	 width="24px" height="24px" viewBox="127.5 4.5 24 24" enable-background="new 127.5 4.5 24 24" xml:space="preserve">
<path fill="none" d="M127.5,4.5h24v24h-24V4.5z"/>
<g>
	<path d="M136.2,19.1c-0.4,0-0.7,0-1,0.2c0.1,0.3,0.3,0.6,0.5,0.9c0.1-0.1,0.2-0.3,0.3-0.5C136.1,19.4,136.2,19.2,136.2,19.1z"/>
	<path d="M138.5,8.5c-4.7,0-8.4,3.8-8.4,8.4c0,4.7,3.8,8.4,8.4,8.4c4.7,0,8.4-3.8,8.4-8.4C146.9,12.3,143.1,8.5,138.5,8.5z
		 M141.4,10.7l0.8,1.1c0.1,0.2,0.1,0.4-0.1,0.5c-0.2,0.1-0.4,0.1-0.5-0.1l-0.9-1.3c0-0.1-0.1-0.1-0.1-0.2H141.4z M140.2,10.7
		l0.8,1.1c0.1,0.2,0.1,0.4-0.1,0.5c-0.2,0.1-0.4,0.1-0.5-0.1l-0.9-1.3c0-0.1-0.1-0.1-0.1-0.2H140.2z M139.1,10.7l0.8,1.1
		c0.1,0.2,0.1,0.4-0.1,0.5c-0.2,0.1-0.4,0.1-0.5-0.1l-0.9-1.3c0-0.1-0.1-0.1-0.1-0.2H139.1z M139.4,13.9c0,0.5-0.4,1-1,1s-1-0.4-1-1
		s0.4-1,1-1S139.4,13.4,139.4,13.9z M137.8,10.7l0.8,1.1c0.1,0.2,0.1,0.4-0.1,0.5c-0.2,0.1-0.4,0.1-0.5-0.1l-0.9-1.3
		c0-0.1-0.1-0.1-0.1-0.2H137.8z M136.7,10.7l0.8,1.1c0.1,0.2,0.1,0.4-0.1,0.5c-0.2,0.1-0.4,0.1-0.5-0.1L136,11
		c0-0.1-0.1-0.1-0.1-0.2H136.7z M135.6,10.7l0.8,1.1c0.1,0.2,0.1,0.4-0.1,0.5c-0.2,0.1-0.4,0.1-0.5-0.1l-0.9-1.3
		c0-0.1-0.1-0.1-0.1-0.2H135.6z M143.2,12.4C143.2,12.4,143.2,12.4,143.2,12.4l0,4.8v0.3v0.1v4.7v0.8h-9.6v-0.3c0-0.1,0-0.1,0-0.2
		c0-1,0-2,0-3c0-0.7,0-1.3,0-2c0,0,0-0.1,0-0.1v-0.3v-6.4h0.1c0,0.1,0,0.2,0.1,0.2l0,0.1v-0.3h0.7l0.8,1.1c0.1,0.2,0.1,0.4-0.1,0.5
		s-0.4,0.1-0.5-0.1l-0.9-1.2v6.1h3.3c0-0.1,0-0.2,0-0.3h-0.7c-0.1,0-0.2-0.1-0.2-0.2c0,0,0-2.7,0-2.7c0-0.2,0.2-0.4,0.4-0.4h0.1
		c0.2,0,0.4,0.2,0.4,0.4v1.2h2.8v-1.1c0-0.2,0.2-0.4,0.4-0.4h0.1c0.2,0,0.4,0.2,0.4,0.4v2.6c0,0,0,0,0,0c0,0.1-0.1,0.2-0.2,0.2h-0.7
		c0,0,0,0,0,0.1c0,0.1,0,0.2,0,0.2h3.2v-4.7c-0.1,0-0.2-0.1-0.3-0.2l-0.9-1.3c0-0.1-0.1-0.1-0.1-0.2h0.8l0.8,1.1
		C143.4,12,143.4,12.2,143.2,12.4z"/>
	<path d="M141,18.9c-0.1,0.2-0.2,0.4-0.2,0.6c-0.2,0-0.4,0-0.6,0.1c0,0,0,0-0.1,0c0-0.1,0.1-0.1,0.1-0.2c-0.2,0-0.4,0-0.6-0.2
		c-0.1-0.1-0.2-0.2-0.2-0.3c0-0.1,0-0.2,0-0.2c0,0,0-0.1,0-0.1c-0.2,0.1-0.3,0.2-0.5,0.4c-0.1,0.2-0.3,0.3-0.4,0.5c0,0,0,0,0,0
		c0,0-0.1-0.1-0.1-0.1c-0.2-0.3-0.5-0.5-0.8-0.7c0.1-0.2,0.2-0.5,0.2-0.8c0,0,0,0,0-0.1c-0.2,0.1-0.4,0.2-0.5,0.4
		c-0.2,0-0.4,0-0.6,0c0.2,0.3,0.4,0.4,0.7,0.5c-0.1,0.2-0.1,0.4-0.2,0.6c-0.1-0.1-0.3-0.2-0.5-0.3c-0.2-0.1-0.4-0.1-0.6-0.2
		c0.1,0.2,0.1,0.4,0,0.7c-0.1,0.1-0.1,0.2-0.2,0.3c-0.1,0-0.1,0.1-0.2,0.1c0,0-0.1,0-0.1,0c0.1,0.1,0.3,0.2,0.5,0.3
		c0.2,0.1,0.4,0.2,0.6,0.2c0.3,0,0.5,0,0.8,0c0,0.1,0.1,0.1,0.1,0.2c0,0,0,0,0,0c0,0,0,0,0.1,0c0,0,0.1,0.1,0.1,0.1c0,0,0,0,0-0.1
		c0,0,0,0,0,0c0,0,0,0-0.1,0c0.2,0.2,0.4,0.4,0.7,0.5c0,0,0,0,0.1,0.1c0,0,0,0,0,0c0,0,0.1,0,0.1,0c0.1-0.3,0.2-0.6,0.3-0.9
		c0.2,0,0.3-0.1,0.5-0.2c0,0,0,0,0.1,0c-0.1,0.2-0.1,0.5-0.1,0.7c0.3,0,0.5,0,0.8-0.1c-0.1-0.1-0.2-0.3-0.3-0.4
		c-0.1-0.1-0.2-0.2-0.3-0.2c0,0,0,0,0.1,0c0.1,0,0.2,0.1,0.4,0.2c0.1,0.1,0.1,0.2,0.1,0.2c0,0.1,0,0.1,0,0.2c0,0,0,0,0,0.1
		c0.1-0.1,0.3-0.1,0.4-0.3c0.1-0.1,0.2-0.2,0.3-0.4c0.1-0.3,0.2-0.5,0.2-0.8c0.2,0,0.4,0,0.6-0.1c0,0,0,0,0,0
		c-0.1-0.1-0.3-0.2-0.4-0.2C141.2,19.2,141.1,19.1,141,18.9z"/>
	<path d="M140.3,19.5c0.1-0.4,0.2-0.7,0.1-1c-0.3,0-0.7,0.1-1,0.3c0.1,0.2,0.2,0.3,0.4,0.5C140,19.4,140.2,19.5,140.3,19.5z"/>
	<path d="M143,12.3v0.2c0.1,0,0.2,0,0.2-0.1v-0.1H143z"/>
</g>
</svg>
