<?xml version="1.0" encoding="utf-8"?>
<!-- Generator: Adobe Illustrator 18.1.1, SVG Export Plug-In . SVG Version: 6.00 Build 0)  -->
<svg version="1.1" id="Layer_1" xmlns="http://www.w3.org/2000/svg" xmlns:xlink="http://www.w3.org/1999/xlink" x="0px" y="0px"
	 width="24px" height="24px" viewBox="218.8 4.5 24 24" enable-background="new 218.8 4.5 24 24" xml:space="preserve">
<path fill="none" d="M218.8,4.5h24v24h-24V4.5z"/>
<g>
	<path d="M230.4,8.5c-4.7,0-8.5,3.8-8.5,8.5c0,4.7,3.8,8.5,8.5,8.5c4.7,0,8.5-3.8,8.5-8.5S235.1,8.5,230.4,8.5z M226.9,13.8l0.1,0.2
		c0,0,0,0.1,0,0.1c0,0-0.1,0-0.1,0l-0.1-0.2c0,0,0,0,0,0H226.9z M226.7,13.8l0.1,0.2c0,0,0,0.1,0,0.1c0,0-0.1,0-0.1,0l-0.1-0.2
		c0,0,0,0,0,0H226.7z M226.5,13.8l0.1,0.2c0,0,0,0.1,0,0.1c0,0-0.1,0-0.1,0l-0.1-0.2c0,0,0,0,0,0H226.5z M226.5,14.3
		c0,0.1-0.1,0.2-0.2,0.2c-0.1,0-0.2-0.1-0.2-0.2c0-0.1,0.1-0.2,0.2-0.2C226.5,14.1,226.5,14.2,226.5,14.3z M226.3,13.8l0.1,0.2
		c0,0,0,0.1,0,0.1c0,0-0.1,0-0.1,0l-0.1-0.2c0,0,0,0,0,0H226.3z M226.1,13.8l0.1,0.2c0,0,0,0.1,0,0.1c0,0-0.1,0-0.1,0l-0.1-0.2
		c0,0,0,0,0,0H226.1z M225.9,13.8l0.1,0.2c0,0,0,0.1,0,0.1c0,0-0.1,0-0.1,0l-0.1-0.2c0,0,0,0,0,0H225.9z M225.6,15.6
		C225.6,15.6,225.6,15.6,225.6,15.6c0-0.2,0-0.3,0-0.5c0-0.1,0-0.2,0-0.3h1.5v0.7v0.1v0L225.6,15.6L225.6,15.6z M226,16.1
		C226,16.1,226,16.1,226,16.1l0.1,0l0.1,0.2c0,0,0,0.1,0,0.1c0,0-0.1,0-0.1,0L226,16.1z M226.1,16.3C226,16.3,226,16.3,226.1,16.3
		l-0.2-0.2c0,0,0,0,0,0h0.1L226.1,16.3C226.1,16.3,226.1,16.3,226.1,16.3z M226.2,16.1h0.1l0.1,0.2c0,0,0,0.1,0,0.1c0,0-0.1,0-0.1,0
		L226.2,16.1C226.2,16.1,226.2,16.1,226.2,16.1z M226.4,16.4c0.1,0,0.2,0.1,0.2,0.2c0,0.1-0.1,0.2-0.2,0.2c-0.1,0-0.2-0.1-0.2-0.2
		C226.2,16.5,226.3,16.4,226.4,16.4z M226.5,16.3l-0.1-0.2c0,0,0,0,0,0h0.1L226.5,16.3C226.6,16.3,226.6,16.3,226.5,16.3
		C226.6,16.3,226.5,16.3,226.5,16.3z M226.6,16.1C226.6,16.1,226.5,16.1,226.6,16.1l0.1,0l0.1,0.2c0,0,0,0.1,0,0.1s-0.1,0-0.1,0
		L226.6,16.1z M226.7,16.1C226.7,16.1,226.7,16.1,226.7,16.1l0.1,0l0.1,0.2c0,0,0,0.1,0,0.1c0,0-0.1,0-0.1,0L226.7,16.1z M225.6,18
		C225.6,17.9,225.6,17.9,225.6,18c0-0.2,0-0.3,0-0.5c0-0.1,0-0.2,0-0.3h1.5v0.7V18v0L225.6,18L225.6,18z M226,18.5
		C226,18.5,226,18.4,226,18.5l0.1,0l0.1,0.2c0,0,0,0.1,0,0.1c0,0-0.1,0-0.1,0L226,18.5z M226.1,18.7C226,18.7,226,18.7,226.1,18.7
		l-0.2-0.2c0,0,0,0,0,0h0.1L226.1,18.7C226.1,18.6,226.1,18.7,226.1,18.7z M226.2,18.4h0.1l0.1,0.2c0,0,0,0.1,0,0.1c0,0-0.1,0-0.1,0
		L226.2,18.4C226.2,18.5,226.2,18.4,226.2,18.4z M226.4,18.8c0.1,0,0.2,0.1,0.2,0.2c0,0.1-0.1,0.2-0.2,0.2c-0.1,0-0.2-0.1-0.2-0.2
		C226.2,18.8,226.3,18.8,226.4,18.8z M226.5,18.7l-0.1-0.2c0,0,0,0,0,0h0.1L226.5,18.7C226.6,18.6,226.6,18.7,226.5,18.7
		C226.6,18.7,226.5,18.7,226.5,18.7z M226.6,18.5C226.6,18.5,226.5,18.4,226.6,18.5l0.1,0l0.1,0.2c0,0,0,0.1,0,0.1s-0.1,0-0.1,0
		L226.6,18.5z M226.7,18.5C226.7,18.5,226.7,18.4,226.7,18.5l0.1,0l0.1,0.2c0,0,0,0.1,0,0.1c0,0-0.1,0-0.1,0L226.7,18.5z
		 M227.2,18.7C227.2,18.7,227.2,18.7,227.2,18.7l0,0.8v0.1h0v0.8v0.1v0h-1.5v-0.1c0,0,0,0,0-0.1c0-0.1,0-0.3,0-0.4
		c0-0.1,0-0.2,0-0.3h1.5v0h-0.3v0h-0.2c0,0,0,0,0,0h-0.4c0,0,0,0,0,0h-0.2v0c-0.1,0-0.3,0-0.3,0v-0.1v-1h0c0,0,0,0,0,0l0,0v0h0.1
		l0.1,0.2c0,0,0,0.1,0,0.1c0,0-0.1,0-0.1,0l-0.1-0.2v1h0.5c0,0,0,0,0,0h-0.1c0,0,0,0,0,0c0,0,0-0.4,0-0.4c0,0,0-0.1,0.1-0.1h0
		c0,0,0.1,0,0.1,0.1v0.2h0.4V19c0,0,0-0.1,0.1-0.1h0c0,0,0.1,0,0.1,0.1v0.4c0,0,0,0,0,0c0,0,0,0,0,0h-0.1c0,0,0,0,0,0c0,0,0,0,0,0
		h0.5L227.2,18.7C227.1,18.7,227.1,18.7,227.2,18.7l-0.2-0.2c0,0,0,0,0,0h0.1L227.2,18.7C227.2,18.6,227.2,18.7,227.2,18.7z
		 M227.2,16.3C227.2,16.3,227.2,16.3,227.2,16.3l0,0.8v0.1h-0.3v0h-0.2c0,0,0,0,0,0h-0.4c0,0,0,0,0,0h-0.2v0c-0.1,0-0.3,0-0.3,0
		v-0.1v-1h0c0,0,0,0,0,0l0,0v0h0.1l0.1,0.2c0,0,0,0.1,0,0.1c0,0-0.1,0-0.1,0l-0.1-0.2v1h0.5c0,0,0,0,0,0h-0.1c0,0,0,0,0,0
		c0,0,0-0.4,0-0.4c0,0,0-0.1,0.1-0.1h0c0,0,0.1,0,0.1,0.1v0.2h0.4v-0.2c0,0,0-0.1,0.1-0.1h0c0,0,0.1,0,0.1,0.1V17c0,0,0,0,0,0
		c0,0,0,0,0,0h-0.1c0,0,0,0,0,0c0,0,0,0,0,0h0.5L227.2,16.3C227.1,16.3,227.1,16.3,227.2,16.3l-0.2-0.2c0,0,0,0,0,0h0.1L227.2,16.3
		C227.2,16.3,227.2,16.3,227.2,16.3z M227.2,14C227.2,14,227.2,14,227.2,14l0,0.8v0.1h-0.3v0h-0.2h0c0,0,0,0,0,0h-0.4c0,0,0,0,0,0
		h-0.2v0c-0.1,0-0.3,0-0.3,0v-0.1v-1h0c0,0,0,0,0,0l0,0v0h0.1l0.1,0.2c0,0,0,0.1,0,0.1c0,0-0.1,0-0.1,0l-0.1-0.2v1h0.5c0,0,0,0,0,0
		l-0.1,0c0,0,0,0,0,0c0,0,0-0.4,0-0.4c0,0,0-0.1,0.1-0.1h0c0,0,0.1,0,0.1,0.1v0.2h0.4v-0.2c0,0,0-0.1,0.1-0.1h0c0,0,0.1,0,0.1,0.1
		v0.4c0,0,0,0,0,0c0,0,0,0,0,0h-0.1c0,0,0,0,0,0c0,0,0,0,0,0h0.5L227.2,14C227.1,14,227.1,14,227.2,14l-0.2-0.2c0,0,0,0,0,0h0.1
		L227.2,14C227.2,14,227.2,14,227.2,14z M234.3,20h-5.5c-0.3,0-0.6-0.3-0.6-0.6c0-0.3,0.3-0.6,0.6-0.6h5.5c0.3,0,0.6,0.3,0.6,0.6
		C234.9,19.8,234.7,20,234.3,20z M234.3,17.5h-5.5c-0.3,0-0.6-0.3-0.6-0.6s0.3-0.6,0.6-0.6h5.5c0.3,0,0.6,0.3,0.6,0.6
		C234.9,17.3,234.7,17.5,234.3,17.5z M234.3,15.1h-5.5c-0.3,0-0.6-0.3-0.6-0.6c0-0.3,0.3-0.6,0.6-0.6h5.5c0.3,0,0.6,0.3,0.6,0.6
		C234.9,14.8,234.7,15.1,234.3,15.1z"/>
	<path d="M227.1,14L227.1,14C227.1,14,227.1,14,227.1,14L227.1,14L227.1,14z"/>
	<path d="M227.1,16.3L227.1,16.3C227.1,16.3,227.1,16.3,227.1,16.3L227.1,16.3L227.1,16.3z"/>
	<path d="M227.1,18.7L227.1,18.7C227.1,18.7,227.1,18.7,227.1,18.7L227.1,18.7L227.1,18.7z"/>
</g>
</svg>
